<?xml version="1.0" encoding="UTF-8" standalone="no"?>
<!DOCTYPE svg PUBLIC "-//W3C//DTD SVG 1.1//EN"
 "http://www.w3.org/Graphics/SVG/1.1/DTD/svg11.dtd">
<!-- Generated by graphviz version 2.43.0 (0)
 -->
<!-- Pages: 1 -->
<svg width="370pt" height="73pt"
 viewBox="0.00 0.00 370.00 73.00" xmlns="http://www.w3.org/2000/svg" xmlns:xlink="http://www.w3.org/1999/xlink">
<g id="graph0" class="graph" transform="scale(1 1) rotate(0) translate(4 69)">
<polygon fill="white" stroke="transparent" points="-4,4 -4,-69 366,-69 366,4 -4,4"/>
<text text-anchor="middle" x="181" y="-7.8" font-family="Times,serif" font-size="14.00" fill="gray">rcviz nodes=2</text>
<!-- 139932378809920 -->
<g id="node1" class="node">
<title>139932378809920</title>
<path fill="#eeeeee" stroke="transparent" d="M12,-23C12,-23 160,-23 160,-23 166,-23 172,-29 172,-35 172,-35 172,-53 172,-53 172,-59 166,-65 160,-65 160,-65 12,-65 12,-65 6,-65 0,-59 0,-53 0,-53 0,-35 0,-35 0,-29 6,-23 12,-23"/>
<text text-anchor="start" x="4" y="-50.6" font-family="Times,serif" font-size="13.00">partition([0, 1, 2, 3],0,4)</text>
<text text-anchor="start" x="67.5" y="-30.6" font-family="Times,serif" font-size="13.00">ret: 0</text>
<polygon fill="gray" stroke="gray" points="0,-44 0,-44 172,-44 172,-44 0,-44"/>
</g>
<!-- 139932376663616 -->
<g id="node2" class="node">
<title>139932376663616</title>
<path fill="#eeeeee" stroke="transparent" d="M202,-23C202,-23 350,-23 350,-23 356,-23 362,-29 362,-35 362,-35 362,-53 362,-53 362,-59 356,-65 350,-65 350,-65 202,-65 202,-65 196,-65 190,-59 190,-53 190,-53 190,-35 190,-35 190,-29 196,-23 202,-23"/>
<text text-anchor="start" x="194" y="-50.6" font-family="Times,serif" font-size="13.00">partition([0, 1, 2, 3],1,4)</text>
<text text-anchor="start" x="257.5" y="-30.6" font-family="Times,serif" font-size="13.00">ret: 2</text>
<polygon fill="gray" stroke="gray" points="190,-44 190,-44 362,-44 362,-44 190,-44"/>
</g>
</g>
</svg>
